<mxfile host="app.diagrams.net" modified="2024-05-01T07:21:11.750Z" agent="Mozilla/5.0 (Windows NT 10.0; Win64; x64) AppleWebKit/537.36 (KHTML, like Gecko) Chrome/124.0.0.0 Safari/537.36" etag="MjCL_ev7VeS7z3kFg7cT" version="24.3.1" type="github">
  <diagram name="第 1 页" id="Ewtv5tWPaEho7JRxLo0V">
    <mxGraphModel dx="2625" dy="1325" grid="1" gridSize="10" guides="1" tooltips="1" connect="1" arrows="1" fold="1" page="1" pageScale="1" pageWidth="827" pageHeight="1169" math="0" shadow="0">
      <root>
        <mxCell id="0" />
        <mxCell id="1" parent="0" />
        <mxCell id="tE9-uQu9QcbrQawJHL18-1" value="微服务主要依赖" style="rounded=0;whiteSpace=wrap;html=1;fontSize=35;fontStyle=1;textDirection=vertical-lr;" vertex="1" parent="1">
          <mxGeometry x="110" y="930" width="200" height="340" as="geometry" />
        </mxCell>
        <mxCell id="tE9-uQu9QcbrQawJHL18-41" style="edgeStyle=orthogonalEdgeStyle;rounded=0;orthogonalLoop=1;jettySize=auto;html=1;exitX=0;exitY=0.5;exitDx=0;exitDy=0;entryX=1;entryY=0.5;entryDx=0;entryDy=0;" edge="1" parent="1" source="tE9-uQu9QcbrQawJHL18-2" target="tE9-uQu9QcbrQawJHL18-1">
          <mxGeometry relative="1" as="geometry" />
        </mxCell>
        <mxCell id="tE9-uQu9QcbrQawJHL18-2" value="web-spring-boot-starter" style="rounded=0;whiteSpace=wrap;html=1;fontStyle=1;fontSize=19;" vertex="1" parent="1">
          <mxGeometry x="550" y="650" width="220" height="80" as="geometry" />
        </mxCell>
        <mxCell id="tE9-uQu9QcbrQawJHL18-40" style="edgeStyle=orthogonalEdgeStyle;rounded=0;orthogonalLoop=1;jettySize=auto;html=1;exitX=0;exitY=0.5;exitDx=0;exitDy=0;entryX=1;entryY=0.5;entryDx=0;entryDy=0;" edge="1" parent="1" source="tE9-uQu9QcbrQawJHL18-4" target="tE9-uQu9QcbrQawJHL18-2">
          <mxGeometry relative="1" as="geometry" />
        </mxCell>
        <mxCell id="tE9-uQu9QcbrQawJHL18-4" value="&lt;div style=&quot;background-color: rgb(255, 255, 255); color: rgb(8, 8, 8); font-size: 20px;&quot;&gt;&lt;pre style=&quot;font-family: &amp;quot;JetBrains Mono&amp;quot;, monospace; font-size: 20px;&quot;&gt;spring-boot-starter-web&lt;/pre&gt;&lt;/div&gt;" style="rounded=0;whiteSpace=wrap;html=1;fontSize=20;fontStyle=1" vertex="1" parent="1">
          <mxGeometry x="1000" y="520" width="400" height="90" as="geometry" />
        </mxCell>
        <mxCell id="tE9-uQu9QcbrQawJHL18-39" style="edgeStyle=orthogonalEdgeStyle;rounded=0;orthogonalLoop=1;jettySize=auto;html=1;exitX=0;exitY=0.5;exitDx=0;exitDy=0;entryX=1;entryY=0.5;entryDx=0;entryDy=0;" edge="1" parent="1" source="tE9-uQu9QcbrQawJHL18-5" target="tE9-uQu9QcbrQawJHL18-2">
          <mxGeometry relative="1" as="geometry" />
        </mxCell>
        <mxCell id="tE9-uQu9QcbrQawJHL18-5" value="&lt;div style=&quot;background-color: rgb(255, 255, 255); color: rgb(8, 8, 8); font-size: 20px;&quot;&gt;&lt;pre style=&quot;font-family: &amp;quot;JetBrains Mono&amp;quot;, monospace; font-size: 20px;&quot;&gt;&lt;div style=&quot;font-size: 20px;&quot;&gt;&lt;pre style=&quot;font-family: &amp;quot;JetBrains Mono&amp;quot;, monospace; font-size: 20px;&quot;&gt;springdoc-openapi-starter-webmvc-api&lt;/pre&gt;&lt;/div&gt;&lt;/pre&gt;&lt;/div&gt;" style="rounded=0;whiteSpace=wrap;html=1;fontSize=20;fontStyle=1" vertex="1" parent="1">
          <mxGeometry x="1000" y="650" width="400" height="90" as="geometry" />
        </mxCell>
        <mxCell id="tE9-uQu9QcbrQawJHL18-38" style="edgeStyle=orthogonalEdgeStyle;rounded=0;orthogonalLoop=1;jettySize=auto;html=1;exitX=0;exitY=0.5;exitDx=0;exitDy=0;entryX=1;entryY=0.5;entryDx=0;entryDy=0;" edge="1" parent="1" source="tE9-uQu9QcbrQawJHL18-6" target="tE9-uQu9QcbrQawJHL18-2">
          <mxGeometry relative="1" as="geometry" />
        </mxCell>
        <mxCell id="tE9-uQu9QcbrQawJHL18-6" value="&lt;div style=&quot;background-color: rgb(255, 255, 255); color: rgb(8, 8, 8); font-size: 20px;&quot;&gt;&lt;pre style=&quot;font-family: &amp;quot;JetBrains Mono&amp;quot;, monospace; font-size: 20px;&quot;&gt;&lt;pre style=&quot;font-family: &amp;quot;JetBrains Mono&amp;quot;, monospace; font-size: 20px;&quot;&gt;&lt;div style=&quot;font-size: 20px;&quot;&gt;&lt;pre style=&quot;font-family: &amp;quot;JetBrains Mono&amp;quot;, monospace; font-size: 20px;&quot;&gt;spring-boot-starter-validation&lt;/pre&gt;&lt;/div&gt;&lt;/pre&gt;&lt;/pre&gt;&lt;/div&gt;" style="rounded=0;whiteSpace=wrap;html=1;fontSize=20;fontStyle=1" vertex="1" parent="1">
          <mxGeometry x="995" y="800" width="405" height="80" as="geometry" />
        </mxCell>
        <mxCell id="tE9-uQu9QcbrQawJHL18-42" style="edgeStyle=orthogonalEdgeStyle;rounded=0;orthogonalLoop=1;jettySize=auto;html=1;exitX=0;exitY=0.5;exitDx=0;exitDy=0;entryX=1;entryY=0.5;entryDx=0;entryDy=0;" edge="1" parent="1" source="tE9-uQu9QcbrQawJHL18-7" target="tE9-uQu9QcbrQawJHL18-1">
          <mxGeometry relative="1" as="geometry">
            <Array as="points">
              <mxPoint x="430" y="1065" />
              <mxPoint x="430" y="1100" />
            </Array>
          </mxGeometry>
        </mxCell>
        <mxCell id="tE9-uQu9QcbrQawJHL18-7" value="&lt;div style=&quot;background-color: rgb(255, 255, 255); color: rgb(8, 8, 8); font-size: 20px;&quot;&gt;&lt;pre style=&quot;font-family: &amp;quot;JetBrains Mono&amp;quot;, monospace; font-size: 20px;&quot;&gt;&lt;font style=&quot;font-size: 20px;&quot;&gt;mysql-spring-boot-starter&lt;/font&gt;&lt;/pre&gt;&lt;/div&gt;" style="rounded=0;whiteSpace=wrap;html=1;fontStyle=1;fontSize=20;" vertex="1" parent="1">
          <mxGeometry x="530" y="1010" width="260" height="110" as="geometry" />
        </mxCell>
        <mxCell id="tE9-uQu9QcbrQawJHL18-37" style="edgeStyle=orthogonalEdgeStyle;rounded=0;orthogonalLoop=1;jettySize=auto;html=1;exitX=0;exitY=0.5;exitDx=0;exitDy=0;entryX=1;entryY=0.5;entryDx=0;entryDy=0;" edge="1" parent="1" source="tE9-uQu9QcbrQawJHL18-8" target="tE9-uQu9QcbrQawJHL18-7">
          <mxGeometry relative="1" as="geometry" />
        </mxCell>
        <mxCell id="tE9-uQu9QcbrQawJHL18-8" value="&lt;div style=&quot;background-color: rgb(255, 255, 255); color: rgb(8, 8, 8); font-size: 20px;&quot;&gt;&lt;pre style=&quot;font-family: &amp;quot;JetBrains Mono&amp;quot;, monospace; font-size: 20px;&quot;&gt;mysql-connector-j&lt;/pre&gt;&lt;/div&gt;" style="rounded=0;whiteSpace=wrap;html=1;fontSize=20;fontStyle=1" vertex="1" parent="1">
          <mxGeometry x="995" y="970" width="405" height="80" as="geometry" />
        </mxCell>
        <mxCell id="tE9-uQu9QcbrQawJHL18-36" style="edgeStyle=orthogonalEdgeStyle;rounded=0;orthogonalLoop=1;jettySize=auto;html=1;exitX=0;exitY=0.5;exitDx=0;exitDy=0;entryX=1;entryY=0.5;entryDx=0;entryDy=0;" edge="1" parent="1" source="tE9-uQu9QcbrQawJHL18-9" target="tE9-uQu9QcbrQawJHL18-7">
          <mxGeometry relative="1" as="geometry" />
        </mxCell>
        <mxCell id="tE9-uQu9QcbrQawJHL18-9" value="&lt;div style=&quot;background-color: rgb(255, 255, 255); color: rgb(8, 8, 8); font-size: 20px;&quot;&gt;&lt;pre style=&quot;font-family: &amp;quot;JetBrains Mono&amp;quot;, monospace; font-size: 20px;&quot;&gt;mybatis-plus-boot-starter&lt;/pre&gt;&lt;/div&gt;" style="rounded=0;whiteSpace=wrap;html=1;fontSize=20;fontStyle=1" vertex="1" parent="1">
          <mxGeometry x="995" y="1130" width="405" height="90" as="geometry" />
        </mxCell>
        <mxCell id="tE9-uQu9QcbrQawJHL18-43" style="edgeStyle=orthogonalEdgeStyle;rounded=0;orthogonalLoop=1;jettySize=auto;html=1;exitX=0;exitY=0.5;exitDx=0;exitDy=0;entryX=1;entryY=0.5;entryDx=0;entryDy=0;" edge="1" parent="1" source="tE9-uQu9QcbrQawJHL18-27" target="tE9-uQu9QcbrQawJHL18-1">
          <mxGeometry relative="1" as="geometry" />
        </mxCell>
        <mxCell id="tE9-uQu9QcbrQawJHL18-27" value="&lt;div style=&quot;background-color:#ffffff;color:#080808&quot;&gt;&lt;pre style=&quot;font-family: &amp;quot;JetBrains Mono&amp;quot;, monospace;&quot;&gt;&lt;font style=&quot;font-size: 15px;&quot;&gt;openfeign-spring-boot-starter&lt;/font&gt;&lt;/pre&gt;&lt;/div&gt;" style="rounded=0;whiteSpace=wrap;html=1;fontStyle=1" vertex="1" parent="1">
          <mxGeometry x="550" y="1395" width="220" height="80" as="geometry" />
        </mxCell>
        <mxCell id="tE9-uQu9QcbrQawJHL18-34" style="edgeStyle=orthogonalEdgeStyle;rounded=0;orthogonalLoop=1;jettySize=auto;html=1;exitX=0;exitY=0.5;exitDx=0;exitDy=0;entryX=1;entryY=0.5;entryDx=0;entryDy=0;" edge="1" parent="1" source="tE9-uQu9QcbrQawJHL18-28" target="tE9-uQu9QcbrQawJHL18-27">
          <mxGeometry relative="1" as="geometry" />
        </mxCell>
        <mxCell id="tE9-uQu9QcbrQawJHL18-28" value="&lt;div style=&quot;background-color:#ffffff;color:#080808&quot;&gt;&lt;pre style=&quot;font-family: &amp;quot;JetBrains Mono&amp;quot;, monospace;&quot;&gt;&lt;b style=&quot;&quot;&gt;&lt;font style=&quot;font-size: 20px;&quot;&gt;spring-cloud-starter-openfeign&lt;/font&gt;&lt;/b&gt;&lt;/pre&gt;&lt;/div&gt;" style="rounded=0;whiteSpace=wrap;html=1;" vertex="1" parent="1">
          <mxGeometry x="995" y="1500" width="405" height="90" as="geometry" />
        </mxCell>
        <mxCell id="tE9-uQu9QcbrQawJHL18-35" style="edgeStyle=orthogonalEdgeStyle;rounded=0;orthogonalLoop=1;jettySize=auto;html=1;exitX=0;exitY=0.5;exitDx=0;exitDy=0;entryX=1;entryY=0.5;entryDx=0;entryDy=0;" edge="1" parent="1" source="tE9-uQu9QcbrQawJHL18-29" target="tE9-uQu9QcbrQawJHL18-27">
          <mxGeometry relative="1" as="geometry" />
        </mxCell>
        <mxCell id="tE9-uQu9QcbrQawJHL18-29" value="&lt;div style=&quot;background-color: rgb(255, 255, 255); color: rgb(8, 8, 8); font-size: 20px;&quot;&gt;&lt;pre style=&quot;font-family: &amp;quot;JetBrains Mono&amp;quot;, monospace; font-size: 20px;&quot;&gt;spring-cloud-starter-loadbalancer&lt;/pre&gt;&lt;/div&gt;" style="rounded=0;whiteSpace=wrap;html=1;fontSize=20;fontStyle=1" vertex="1" parent="1">
          <mxGeometry x="995" y="1340" width="405" height="90" as="geometry" />
        </mxCell>
        <mxCell id="tE9-uQu9QcbrQawJHL18-44" style="edgeStyle=orthogonalEdgeStyle;rounded=0;orthogonalLoop=1;jettySize=auto;html=1;exitX=0;exitY=0.5;exitDx=0;exitDy=0;entryX=1;entryY=0.5;entryDx=0;entryDy=0;" edge="1" parent="1" source="tE9-uQu9QcbrQawJHL18-30" target="tE9-uQu9QcbrQawJHL18-1">
          <mxGeometry relative="1" as="geometry" />
        </mxCell>
        <mxCell id="tE9-uQu9QcbrQawJHL18-30" value="&lt;div style=&quot;background-color:#ffffff;color:#080808&quot;&gt;&lt;pre style=&quot;font-family: &amp;quot;JetBrains Mono&amp;quot;, monospace;&quot;&gt;&lt;font style=&quot;font-size: 15px;&quot;&gt;&lt;b&gt;security-spring-boot-starter&lt;/b&gt;&lt;/font&gt;&lt;/pre&gt;&lt;/div&gt;" style="rounded=0;whiteSpace=wrap;html=1;" vertex="1" parent="1">
          <mxGeometry x="545" y="1690" width="230" height="85" as="geometry" />
        </mxCell>
        <mxCell id="tE9-uQu9QcbrQawJHL18-33" style="edgeStyle=orthogonalEdgeStyle;rounded=0;orthogonalLoop=1;jettySize=auto;html=1;exitX=0;exitY=0.5;exitDx=0;exitDy=0;entryX=1;entryY=0.5;entryDx=0;entryDy=0;" edge="1" parent="1" source="tE9-uQu9QcbrQawJHL18-32" target="tE9-uQu9QcbrQawJHL18-30">
          <mxGeometry relative="1" as="geometry" />
        </mxCell>
        <mxCell id="tE9-uQu9QcbrQawJHL18-32" value="&lt;div style=&quot;background-color: rgb(255, 255, 255); color: rgb(8, 8, 8); font-size: 20px;&quot;&gt;&lt;pre style=&quot;font-family: &amp;quot;JetBrains Mono&amp;quot;, monospace; font-size: 20px;&quot;&gt;spring-boot-starter-oauth2-resource-server&lt;/pre&gt;&lt;/div&gt;" style="rounded=0;whiteSpace=wrap;html=1;fontSize=20;fontStyle=1" vertex="1" parent="1">
          <mxGeometry x="997.5" y="1690" width="405" height="85" as="geometry" />
        </mxCell>
      </root>
    </mxGraphModel>
  </diagram>
</mxfile>
